<svg xmlns="http://www.w3.org/2000/svg" viewBox="0 0 521.905 595.812"><defs><style>.a,.b,.c,.d,.e,.j{fill:none;stroke-miterlimit:10;}.a,.b,.c,.d{stroke:#e2b4ff;}.a,.j{stroke-width:20px;}.b{stroke-width:40px;}.c{stroke-width:60px;}.d{stroke-width:80px;}.e{stroke:#95d3ff;stroke-width:64px;}.f{fill:#f7941d;}.g{fill:#f15a29;}.h{fill:#3c2415;}.i{fill:#754c29;}.j{stroke:#7f3dc7;}.k{fill:#baff35;}</style></defs><line class="a" x1="40" y1="83.859" x2="506.667" y2="83.859"/><line class="b" x1="17.619" y1="201.954" x2="512.857" y2="201.954"/><line class="c" y1="345.287" x2="521.905" y2="345.287"/><line class="d" y1="479.573" x2="500" y2="479.573"/><line class="e" x1="491.905" y1="20.525" x2="28.095" y2="575.287"/><rect class="f" x="258.333" y="214.811" width="199.047" height="199.047"/><path class="g" d="M499.048,227.762V406.81H320V227.762H499.048m20-20H300V426.81H519.048V207.762Z" transform="translate(-51.667 -2.951)"/><polygon class="h" points="143.624 266.408 77.202 244.244 135.196 205.006 135.75 134.986 190.989 178.016 257.753 156.906 233.899 222.739 274.607 279.711 204.625 277.368 163.021 333.689 143.624 266.408"/><path class="i" d="M197.256,158.278l35.107,27.347,8.295,6.462,10.026-3.17L293.115,175.5l-15.16,41.84-3.582,9.886,6.113,8.555,25.872,36.209-44.477-1.49-10.509-.351-6.247,8.457-26.442,35.8-12.328-42.76-2.913-10.1-9.974-3.328-42.214-14.086,36.858-24.938,8.709-5.892.083-10.515.352-44.5M177.577,117.6l-.672,85.024-70.422,47.648,80.655,26.913,23.554,81.7,50.519-68.391,84.979,2.845-49.432-69.18,28.966-79.941-81.07,25.634L177.577,117.6Z" transform="translate(-51.667 -2.951)"/><path class="j" d="M91.667,477.286c28.64-47.334,71.864-100.084,130.476-106.667C328.617,358.66,394.071,509.364,471.667,486.333,524.46,470.664,572.02,377.8,535,314.9c-20.446-34.734-68.259-39.512-151.9-47.143-156.239-14.255-223.323,20.27-253.809-17.619C102.7,217.1,118.572,147.149,155,113c59.877-56.132,198.045-36.878,331.429,70.952" transform="translate(-51.667 -2.951)"/><path class="k" d="M332.14,273.147a31.639,31.639,0,0,0-11.212,3.488,35.317,35.317,0,0,0-8.811,5.71,10.453,10.453,0,0,0-2.929,10.029c.873,3.846,3.592,6.862,6.219,9.649,2.211,2.346,5.742-1.194,3.535-3.536-1.938-2.057-4.085-4.227-4.833-7.039-.7-2.62.341-4.664,2.37-6.309a39.419,39.419,0,0,1,7.17-4.285,24.72,24.72,0,0,1,8.491-2.707,2.57,2.57,0,0,0,2.5-2.5,2.517,2.517,0,0,0-2.5-2.5Z" transform="translate(-51.667 -2.951)"/><path class="k" d="M287.378,307.735c6.366,5.788,12.922,11.767,20.865,15.313a36.8,36.8,0,0,0,12.173,3.25,31.3,31.3,0,0,0,12.5-1.769,86.335,86.335,0,0,0,13.223-6.23c2.825-1.542.305-5.861-2.524-4.317-6.632,3.62-13.682,7.495-21.459,7.395-7.747-.1-14.881-3.87-20.961-8.391-3.617-2.69-6.946-5.758-10.278-8.787-2.376-2.16-5.922,1.365-3.535,3.536Z" transform="translate(-51.667 -2.951)"/><path class="k" d="M277.886,314.913a22.654,22.654,0,0,1,17.38-24.417c3.122-.772,1.8-5.595-1.329-4.821a27.985,27.985,0,0,0-21.051,29.238,2.564,2.564,0,0,0,2.5,2.5,2.519,2.519,0,0,0,2.5-2.5Z" transform="translate(-51.667 -2.951)"/><path class="k" d="M283,270.921a12.919,12.919,0,0,1,8.468,3.17,42.873,42.873,0,0,1,6.932,7.941,2.575,2.575,0,0,0,3.421.9,2.52,2.52,0,0,0,.9-3.421c-2.44-3.329-4.908-6.746-8.175-9.323A17.878,17.878,0,0,0,283,265.921a2.5,2.5,0,0,0,0,5Z" transform="translate(-51.667 -2.951)"/><path class="k" d="M356.9,291.028a19.7,19.7,0,0,0-19.262,10.726,2.568,2.568,0,0,0,.9,3.421,2.523,2.523,0,0,0,3.421-.9,14.1,14.1,0,0,1,6.178-6.508q.543-.3,1.106-.563c.149-.07.3-.14.452-.2-.4.171.318-.115.324-.117a17.365,17.365,0,0,1,2.257-.662q.3-.066.607-.122c-.018,0,.668-.107.4-.07-.286.039.348-.036.4-.041.206-.018.411-.033.617-.043a16.338,16.338,0,0,1,2.6.08,2.516,2.516,0,0,0,2.5-2.5,2.558,2.558,0,0,0-2.5-2.5Z" transform="translate(-51.667 -2.951)"/><path class="k" d="M375.727,296.692c-6.845,7.371-13.759,14.993-17.252,24.6a33.169,33.169,0,0,0-1.855,14.579c.2,2.139.619,4.553-.139,6.629-.672,1.842-2.347,2.943-4.037,3.772-4.855,2.384-10.657,3.386-16.015,3.65-3.2.158-3.222,5.159,0,5a52.2,52.2,0,0,0,15.837-3.18c4.623-1.746,8.724-4.6,9.449-9.838a35.9,35.9,0,0,0-.224-7.52,25.679,25.679,0,0,1,.471-7.133,39.181,39.181,0,0,1,6.186-13.8,113.332,113.332,0,0,1,11.114-13.221c2.187-2.356-1.34-5.9-3.535-3.535Z" transform="translate(-51.667 -2.951)"/><path class="k" d="M281.268,394.791a324.874,324.874,0,0,1,39.219-12.3,195.117,195.117,0,0,1,36.9-5.776c12.214-.593,24.541.343,36.3,3.854a83.991,83.991,0,0,1,16.809,7.171c5.5,3.056,10.819,6.459,16.6,8.962a59.756,59.756,0,0,0,21.688,4.489c7.628.3,15.272-.137,22.888.506a2.52,2.52,0,0,0,2.5-2.5,2.551,2.551,0,0,0-2.5-2.5c-13.246-1.119-27.045,1.195-39.809-3.436-5.849-2.122-11.174-5.458-16.548-8.538a98.782,98.782,0,0,0-17.056-7.935c-23.886-8.183-50.149-5.722-74.336-.245a319.737,319.737,0,0,0-43.988,13.426,2.572,2.572,0,0,0-1.746,3.075,2.518,2.518,0,0,0,3.075,1.746Z" transform="translate(-51.667 -2.951)"/><path class="k" d="M120.823,270.973c17.955,14.329,35.743,30.118,47.193,50.334a90.728,90.728,0,0,1,7.676,17.558c.96,3.06,5.788,1.754,4.822-1.329-7.184-22.906-23.2-41.514-40.825-57.243-4.977-4.441-10.117-8.695-15.33-12.855a2.577,2.577,0,0,0-3.536,0,2.517,2.517,0,0,0,0,3.535Z" transform="translate(-51.667 -2.951)"/><path class="k" d="M339.8,173.489a80.55,80.55,0,0,0-9.521,10.425,91.622,91.622,0,0,0-7.742,10.861c-4.406,7.58-6.474,16.425-2.806,24.729a22.745,22.745,0,0,0,8.927,10.133c2.752,1.685,5.267-2.638,2.524-4.317a17.826,17.826,0,0,1-8.29-17.4c.966-7.62,6.008-14.272,10.639-20.109a82.3,82.3,0,0,1,9.805-10.782,2.5,2.5,0,1,0-3.536-3.536Z" transform="translate(-51.667 -2.951)"/><path class="k" d="M291.172,346.409c-18.075-8.423-35.891-18.464-49.229-33.595A74.356,74.356,0,0,1,227.68,289.42c-3.29-9.016-4.589-19.405,1.923-27.338,7.071-8.615,18.16-11.649,28.476-14.445,3.1-.841,1.785-5.666-1.329-4.822-10.092,2.736-20.588,5.755-28.326,13.189a27.438,27.438,0,0,0-7.618,12.4c-1.476,5.425-1.037,11.194.285,16.6,4.87,19.92,19.658,36.238,35.938,47.893,9.863,7.061,20.645,12.711,31.62,17.825a2.571,2.571,0,0,0,3.42-.9,2.52,2.52,0,0,0-.9-3.42Z" transform="translate(-51.667 -2.951)"/><path class="k" d="M430.739,254.161a258.185,258.185,0,0,1,56.389,10.04c3.092.912,4.413-3.911,1.329-4.821a264.36,264.36,0,0,0-57.718-10.219,2.5,2.5,0,0,0,0,5Z" transform="translate(-51.667 -2.951)"/></svg>