<svg xmlns="http://www.w3.org/2000/svg" xmlns:xlink="http://www.w3.org/1999/xlink" viewBox="0 0 542.59 564.586"><defs><style>.a{fill:url(#a);}.b{fill:url(#b);}.c{fill:url(#c);}.d{fill:url(#d);}</style><linearGradient id="a" x1="156.128" y1="198.097" x2="520.627" y2="198.097" gradientUnits="userSpaceOnUse"><stop offset="0.281" stop-color="#fdc70c"/><stop offset="0.669" stop-color="#f3903f"/><stop offset="0.888" stop-color="#ed683c"/><stop offset="1" stop-color="#e93e3a"/></linearGradient><linearGradient id="b" x1="7.624" y1="89.029" x2="185.081" y2="89.029" gradientUnits="userSpaceOnUse"><stop offset="0" stop-color="#ff6ae6"/><stop offset="0.994" stop-color="#66006a"/></linearGradient><linearGradient id="c" x1="261.235" y1="420.638" x2="542.59" y2="420.638" gradientUnits="userSpaceOnUse"><stop offset="0" stop-color="#00bf77"/><stop offset="1" stop-color="#007ee9"/></linearGradient><linearGradient id="d" x1="46.284" y1="378.332" x2="501.228" y2="378.332" gradientUnits="userSpaceOnUse"><stop offset="0" stop-color="#fc68a0"/><stop offset="0.126" stop-color="#b07cb6"/><stop offset="0.26" stop-color="#6590cc"/><stop offset="0.372" stop-color="#2f9fdc"/><stop offset="0.455" stop-color="#0da8e5"/><stop offset="0.5" stop-color="#00abe9"/><stop offset="0.541" stop-color="#0c90db"/><stop offset="0.617" stop-color="#1e64c6"/><stop offset="0.693" stop-color="#2e40b4"/><stop offset="0.77" stop-color="#3a24a6"/><stop offset="0.846" stop-color="#42109c"/><stop offset="0.923" stop-color="#470496"/><stop offset="1" stop-color="#490094"/></linearGradient></defs><polygon class="a" points="390.282 17.621 520.627 152.81 468.722 333.286 286.473 378.573 156.128 243.384 208.033 62.908 390.282 17.621"/><polygon class="b" points="168.854 18.573 148.04 77.862 185.081 128.619 122.262 127.145 85.436 178.058 67.425 117.859 7.624 98.567 59.312 62.836 59.179 0 109.134 38.116 168.854 18.573"/><polygon class="c" points="261.235 495.24 315.557 410.245 276.337 317.311 373.958 342.71 450.224 276.691 456.235 377.383 542.59 429.515 448.684 466.347 425.788 564.586 361.74 486.657 261.235 495.24"/><path class="d" d="M47.564,252.1c12.981-5.176,27.01-5.007,40.627-2.847,14.14,2.242,27.964,6.129,42.005,8.88a449.785,449.785,0,0,0,89.3,8.395,444.891,444.891,0,0,0,88.455-9.4c13.312-2.795,26.629-6.491,38.63-13.049,5.484-3,11.32-6.539,15.029-11.688,3.744-5.2,3.847-11.876,1.359-17.623-5.421-12.521-20.572-16.06-32.927-16.46-13.571-.439-26.847,3.325-39.132,8.833-12.645,5.669-24.249,13.363-35.391,21.541-11.158,8.191-21.937,16.889-32.488,25.844-20.952,17.784-41.027,36.57-61.923,54.418-20.793,17.759-42.533,34.972-66.543,48.215-12.107,6.678-24.907,12.141-38.433,15.177a18.672,18.672,0,0,1-3.892.7c-.206,0-.888.092-1.07-.128.04.048.177.172.159-.031-.07-.8,1.209-2.036,1.714-2.537a16,16,0,0,1,3.8-2.54,76.784,76.784,0,0,1,18.42-6.927c12.956-3.192,26.361-3.776,39.639-4.264,14.646-.538,29.286-1.163,43.916-2.035,29.357-1.75,58.668-4.368,87.819-8.276a834.706,834.706,0,0,0,86.612-16.028c27.32-6.654,54.523-14.7,80.589-25.307,22.593-9.194,44.6-20.717,62.75-37.242a118.679,118.679,0,0,0,22.942-27.942c3.175-5.489,5.707-12.006,4.251-18.416A15.514,15.514,0,0,0,492.692,210.2c-11.273-3.311-23.9,2.179-33.984,6.783-11.887,5.427-22.862,12.643-33.275,20.491-10.7,8.064-20.866,16.79-31.133,25.389q-16.236,13.6-32.9,26.677-33.108,25.977-67.851,49.779-34.763,23.845-70.989,45.46-36.378,21.7-74.088,41.059-18.119,9.3-36.517,18.036c-3.2,1.523-1.818,5.822.9,6.854a230.583,230.583,0,0,0,174.316-4.918c13.69-6.153,27.158-14.69,34.577-28.183,1.09-1.982.212-5.023-2.241-5.509-9.448-1.872-18.429,1.067-26.944,5.012-8.452,3.916-16.657,8.408-24.74,13.03-16.112,9.213-31.7,19.3-47.544,28.953-30.631,18.669-63.576,36.577-99.748,40.966-16.909,2.051-35.736,1.949-51.086-6.378-4.207-2.282-14.545-9.765-8.483-15.241,4.952-4.473,14.254-2.546,20-1.285C98.4,481,114.033,490.621,130.37,497.465a257.239,257.239,0,0,0,50.642,15.657c17.125,3.3,34.722,4.639,52.1,2.84a141.514,141.514,0,0,0,25.152-4.826,124.623,124.623,0,0,0,12.471-4.358,25.9,25.9,0,0,0,9.392-5.956,11.929,11.929,0,0,0,3.243-10.271c-.288-2.068-2.85-3.021-4.613-2.619-42.751,9.761-72.669,45.924-114.027,58.9-11.457,3.594-23.6,5.229-35.518,3.21a3.861,3.861,0,0,0-4.613,2.619c-.5,1.8.611,4.273,2.619,4.613,46.5,7.876,82.942-27.81,120.359-48.744,10.471-5.858,21.443-10.686,33.174-13.365l-4.613-2.619c.379,2.721-3.491,4.969-5.41,6.013a65.756,65.756,0,0,1-11.5,4.443,130.166,130.166,0,0,1-25.354,5.38,171.794,171.794,0,0,1-51.648-2.642,255.337,255.337,0,0,1-51.152-16.052c-16.45-7.049-32.313-16.778-50.091-20.151-7.331-1.391-16.116-2.413-22.827,1.7-7.4,4.542-7.907,13.674-2.966,20.3,5.158,6.913,13.639,10.823,21.672,13.349a89.517,89.517,0,0,0,26,3.711c36.907.319,72-14.652,103.539-32.575,16.5-9.378,32.445-19.7,48.648-29.577,7.974-4.862,16.015-9.619,24.21-14.1,8.016-4.381,16.283-9.181,25.056-11.868a26.979,26.979,0,0,1,13.189-1.131l-2.241-5.508c-6.172,11.225-17.078,18.408-28.353,23.847a201.785,201.785,0,0,1-39.652,13.9,222.7,222.7,0,0,1-132.418-8.091l.9,6.854q37.707-17.922,74.245-38.173,36.509-20.249,71.7-42.761,35-22.387,68.551-46.93,33.751-24.69,65.929-51.448c20.033-16.666,39.636-34.593,63.254-46.126a104.3,104.3,0,0,1,17.534-6.839c4.473-1.252,9.491-1.974,14.012-.564,12.75,3.978,1.15,20.558-3.249,26.694-13.832,19.294-33.838,33.272-54.769,43.929-23.274,11.85-48.359,20.148-73.391,27.39a749.763,749.763,0,0,1-84.883,19.054c-28.519,4.763-57.263,8.078-86.078,10.42q-21.883,1.777-43.817,2.861c-13.991.709-28.009.984-41.993,1.813-13.175.78-26.585,2.293-39.043,6.876-5.724,2.106-12.863,4.674-16.894,9.479-1.868,2.227-3.318,4.971-2.979,7.956a7.444,7.444,0,0,0,5.823,6.311c3.038.7,6.257-.211,9.217-.9,3.373-.781,6.712-1.714,10.008-2.777a156.864,156.864,0,0,0,19.078-7.656,251.551,251.551,0,0,0,35.442-21.1c22.251-15.471,42.82-33.187,63.057-51.167,20.334-18.065,40.421-36.456,61.854-53.231,10.6-8.3,21.523-16.344,33.2-23.081,11.593-6.688,24.233-12.249,37.6-14.04a61.4,61.4,0,0,1,19.148.316c5.73,1.055,11.829,3.04,15.711,7.644,3.351,3.974,4.488,9.854,1.206,14.192-3.675,4.854-10.194,8.084-15.523,10.723-11.93,5.909-25.084,8.993-38.074,11.561a430.94,430.94,0,0,1-43.367,6.31,446.2,446.2,0,0,1-88.262-.5,431.678,431.678,0,0,1-43.292-6.8c-13.979-2.925-27.774-6.716-41.963-8.542C71.6,239.554,58,239.91,45.57,244.867a3.866,3.866,0,0,0-2.619,4.613c.491,1.788,2.72,3.374,4.613,2.619Z" transform="translate(-42.813 -28.713)"/></svg>