<svg xmlns="http://www.w3.org/2000/svg" viewBox="0 0 213.61 210.93"><path d="M218.26,114.61a98.26,98.26,0,0,0-12-47h0c33-74-35-63-39-63h0a175.23,175.23,0,0,0-40,13h0c-46-.55-86,24-99,75h0c24-27,41-38,51-42h0c-2.1,1.9-4.2,3.9-6.3,5.89a296.61,296.61,0,0,0-40,49h0c-8.5,15-18,28-23,45-27,98,58,57,70,50h0a95.16,95.16,0,0,0,43,9.9c42,0,78-27,91-64H163c-24,38-81,21-83-20H218A104.2,104.2,0,0,0,218.26,114.61Zm-17.5-95c8.3,5.6,14.5,14,3,44-11-18-27-32-47-39,8.9-4.3,31-13,44-5ZM23.26,199.91c-6.8-6.9-8-23.3,7-54.3a94.64,94.64,0,0,0,42,51c-9.7,5.3-35,17-49,3.3Zm56-99.3c.77-22,20-40,44-40s43,18,44,40h-88Z" transform="translate(-4.69 -4.04)" fill="#000"/></svg>